/* XPM */
static char * engine_xpm[] = {
"48 48 479 2",
"  	c None",
". 	c #9EACCE",
"+ 	c #CFD7EB",
"@ 	c #C9D2E9",
"# 	c #CBD4EA",
"$ 	c #CCD4EA",
"% 	c #CCD5EB",
"& 	c #D7DDEF",
"* 	c #93A4C9",
"= 	c #7C90C1",
"- 	c #D4DCF3",
"; 	c #D5DCF3",
"> 	c #DCE1F7",
", 	c #E0E6F8",
"' 	c #E4E8FB",
") 	c #EFF3FF",
"! 	c #6E84B8",
"~ 	c #788CBE",
"{ 	c #D4DBF3",
"] 	c #D5DBF4",
"^ 	c #DBE1F6",
"/ 	c #DFE5F9",
"( 	c #E3E8FB",
"_ 	c #6B82B7",
": 	c #A4B3D9",
"< 	c #D3DAF3",
"[ 	c #D7DDF5",
"} 	c #DCE3F8",
"| 	c #E1E6FA",
"1 	c #E5E9FC",
"2 	c #ECF1FF",
"3 	c #A6B4D8",
"4 	c #889BC1",
"5 	c #EDF1FA",
"6 	c #ACBADA",
"7 	c #667FB2",
"8 	c #BDC8E3",
"9 	c #EBEEF7",
"0 	c #D5DDF3",
"a 	c #D0D8F2",
"b 	c #D8DEF5",
"c 	c #DEE4F8",
"d 	c #E2E8FB",
"e 	c #E6EBFC",
"f 	c #E7ECFD",
"g 	c #EEF1FD",
"h 	c #E6EAF5",
"i 	c #AFBCDD",
"j 	c #5973A9",
"k 	c #B0BEDD",
"l 	c #F0F3F7",
"m 	c #7C91BE",
"n 	c #7387B0",
"o 	c #CFD7EE",
"p 	c #B6C2E4",
"q 	c #DCE1F5",
"r 	c #9FAED2",
"s 	c #BCC7E3",
"t 	c #F1F3FC",
"u 	c #D2D9F0",
"v 	c #C0C9E9",
"w 	c #C9D1EE",
"x 	c #D1D9F2",
"y 	c #D8DEF6",
"z 	c #E2E8FC",
"A 	c #E7EBFD",
"B 	c #E7ECFC",
"C 	c #EAEFFF",
"D 	c #EDF1FF",
"E 	c #FAFBFF",
"F 	c #F9FAFF",
"G 	c #B4C0DD",
"H 	c #A6B4D5",
"I 	c #F4F7FE",
"J 	c #D8DFF0",
"K 	c #8799BF",
"L 	c #C1CBE9",
"M 	c #B9C4E5",
"N 	c #B9C4E6",
"O 	c #D1D9F0",
"P 	c #C1CBE5",
"Q 	c #D7DEF2",
"R 	c #B5C1E4",
"S 	c #C0CAE9",
"T 	c #CAD2EE",
"U 	c #E3E8FC",
"V 	c #EBF0FF",
"W 	c #ECF0FF",
"X 	c #F8FAFF",
"Y 	c #E5E9F8",
"Z 	c #CAD3E8",
"` 	c #ECF0FE",
" .	c #F3F7FF",
"..	c #D7DFF0",
"+.	c #798DBB",
"@.	c #8A9CC1",
"#.	c #D6DCF0",
"$.	c #BBC6E7",
"%.	c #BAC5E6",
"&.	c #BBC6E6",
"*.	c #BEC8E8",
"=.	c #BCC6E6",
"-.	c #B8C3E5",
";.	c #BFC9E9",
">.	c #CAD3EE",
",.	c #E1E7FB",
"'.	c #EBF0FE",
").	c #EEF2FF",
"!.	c #ECF1FE",
"~.	c #E8ECF6",
"{.	c #8498C2",
"].	c #B3BFE0",
"^.	c #BCC7E7",
"/.	c #BAC5E5",
"(.	c #BDC8E8",
"_.	c #C9D1ED",
":.	c #CED6F0",
"<.	c #D7DFF4",
"[.	c #E1E7FA",
"}.	c #EBEFFE",
"|.	c #EDF0FF",
"1.	c #E8EDFD",
"2.	c #E9EEFE",
"3.	c #B5C2DD",
"4.	c #8B9EC5",
"5.	c #C7D0ED",
"6.	c #B9C3E5",
"7.	c #B9C5E6",
"8.	c #BCC6E7",
"9.	c #AFBBDF",
"0.	c #B7C3E4",
"a.	c #C5CEEA",
"b.	c #C8D1ED",
"c.	c #CCD5ED",
"d.	c #D0D8F0",
"e.	c #D1D9EF",
"f.	c #D1D8EF",
"g.	c #CAD2ED",
"h.	c #E3E9FA",
"i.	c #E9EDFD",
"j.	c #E4EAFB",
"k.	c #8A9BC2",
"l.	c #8599C3",
"m.	c #C1CBEA",
"n.	c #B7C2E4",
"o.	c #9CABD6",
"p.	c #C9D2EC",
"q.	c #C6CFEC",
"r.	c #CCD5F0",
"s.	c #DBE1F7",
"t.	c #E3E8FA",
"u.	c #E5EAFB",
"v.	c #E7ECFB",
"w.	c #ECEFFA",
"x.	c #CCD4EB",
"y.	c #C2CCE8",
"z.	c #F2F5FF",
"A.	c #EAEFFE",
"B.	c #E5EBFC",
"C.	c #778BB8",
"D.	c #B9C4E7",
"E.	c #AEBADF",
"F.	c #B3BFDF",
"G.	c #E4E9F9",
"H.	c #BEC9E8",
"I.	c #D9E0F6",
"J.	c #EBEFFF",
"K.	c #F2F6FF",
"L.	c #ECF0F9",
"M.	c #C2CCEA",
"N.	c #E9EEFD",
"O.	c #BFCAE9",
"P.	c #6E85B6",
"Q.	c #C5CEEB",
"R.	c #BDC7E8",
"S.	c #A7B5DB",
"T.	c #CBD4EC",
"U.	c #D4DCF2",
"V.	c #C1CCEA",
"W.	c #CBD4EF",
"X.	c #AAB7DC",
"Y.	c #B3BFE1",
"Z.	c #F7F9FF",
"`.	c #F8F9FE",
" +	c #EBEFFD",
".+	c #E8EDFC",
"++	c #E6EAFD",
"@+	c #B3C0E2",
"#+	c #9FAED8",
"$+	c #D7DEF0",
"%+	c #D5DCF4",
"&+	c #C4CEEB",
"*+	c #CBD3EF",
"=+	c #95A5D1",
"-+	c #A9B6DD",
";+	c #FCFDFE",
">+	c #E4E9FC",
",+	c #E0E6FA",
"'+	c #9DADD5",
")+	c #B0BDE0",
"!+	c #C1CBE7",
"~+	c #DAE1F5",
"{+	c #D1DAF2",
"]+	c #CBD4EE",
"^+	c #BDC7E7",
"/+	c #DEE4F9",
"(+	c #EEF2FD",
"_+	c #E9EDFB",
":+	c #DFE5FA",
"<+	c #DFE5F8",
"[+	c #D9DFF6",
"}+	c #CED6EF",
"|+	c #9BABD1",
"1+	c #B8C3E4",
"2+	c #ADBADE",
"3+	c #D6DDF4",
"4+	c #CCD5EF",
"5+	c #C7D1ED",
"6+	c #BCC7E6",
"7+	c #D5DCF5",
"8+	c #DFE4F9",
"9+	c #DBE2F6",
"0+	c #DCE3F7",
"a+	c #D7DEF5",
"b+	c #CDD5F0",
"c+	c #8E9FC8",
"d+	c #A0AFD5",
"e+	c #B6C2E3",
"f+	c #B2BDE1",
"g+	c #C9D3EE",
"h+	c #CAD4EF",
"i+	c #C2CCEB",
"j+	c #C7D0EC",
"k+	c #C3CDE5",
"l+	c #B7C4E1",
"m+	c #D1D8F2",
"n+	c #CDD6EF",
"o+	c #A3B2D7",
"p+	c #A1B0CE",
"q+	c #9EAECD",
"r+	c #9CADCC",
"s+	c #A2B1D3",
"t+	c #C8D0ED",
"u+	c #C5CFEB",
"v+	c #C8D1EC",
"w+	c #D0D9F0",
"x+	c #AFBAD5",
"y+	c #AAB8DA",
"z+	c #E4E8FC",
"A+	c #E0E6F9",
"B+	c #DAE1F7",
"C+	c #B0BCE1",
"D+	c #CBD2EE",
"E+	c #CCD4F0",
"F+	c #C8D2ED",
"G+	c #D1D8F1",
"H+	c #AAB9DA",
"I+	c #9BACCB",
"J+	c #A0B0CD",
"K+	c #9DACCE",
"L+	c #CDD6ED",
"M+	c #D8DEF3",
"N+	c #D2DAF0",
"O+	c #9BABD5",
"P+	c #BDC8E7",
"Q+	c #C1CAEA",
"R+	c #C5CFEC",
"S+	c #C5CEE7",
"T+	c #D7DEF6",
"U+	c #D0D7F1",
"V+	c #A8B6DC",
"W+	c #C3CDEA",
"X+	c #B6C1E4",
"Y+	c #DBE1F4",
"Z+	c #DEE4F6",
"`+	c #BFC9E8",
" @	c #A6B4DC",
".@	c #92A2CF",
"+@	c #C1CAE9",
"@@	c #BEC9E9",
"#@	c #BFCAE7",
"$@	c #C4CEE4",
"%@	c #AFBCE0",
"&@	c #ABB8DE",
"*@	c #B7C3E5",
"=@	c #BBC7E6",
"-@	c #9AAAD6",
";@	c #A7B5DC",
">@	c #8E9FCD",
",@	c #8B9DCC",
"'@	c #BAC6E6",
")@	c #ADBADF",
"!@	c #7288BE",
"~@	c #AEBBDF",
"{@	c #A6B4DB",
"]@	c #BAC4E6",
"^@	c #C0CAEA",
"/@	c #C6CFED",
"(@	c #9DADD7",
"_@	c #90A1CF",
":@	c #A5B3DB",
"<@	c #A1B0D8",
"[@	c #9AA9D4",
"}@	c #C3CDEB",
"|@	c #A7B4DB",
"1@	c #BBC5E6",
"2@	c #BDC8E6",
"3@	c #9EAED8",
"4@	c #96A6D2",
"5@	c #CED6F1",
"6@	c #CDD6F0",
"7@	c #C9D2EE",
"8@	c #C4CDEB",
"9@	c #C6CFE8",
"0@	c #C3CCEA",
"a@	c #C4CDEC",
"b@	c #C6D0EC",
"c@	c #B9C4E4",
"d@	c #ACB8DE",
"e@	c #CCD3EF",
"f@	c #ADBBE0",
"g@	c #BFCAEA",
"h@	c #B8C4E5",
"i@	c #9EADD6",
"j@	c #DAE0F6",
"k@	c #D6DCF4",
"l@	c #CCD4EF",
"m@	c #B2BEDD",
"n@	c #D2D9EF",
"o@	c #CAD3ED",
"p@	c #CBD5EF",
"q@	c #B4C0E3",
"r@	c #B4C0E2",
"s@	c #CBD4F0",
"t@	c #CFD7F1",
"u@	c #D4DCF4",
"v@	c #92A2C5",
"w@	c #9EAECB",
"x@	c #9DADCA",
"y@	c #A1B0D2",
"z@	c #AEBBE0",
"A@	c #E2E7FA",
"B@	c #DFE4F8",
"C@	c #C2CBE5",
"D@	c #D4DCF0",
"E@	c #D0D8F1",
"F@	c #B0BDE1",
"G@	c #A6B4D6",
"H@	c #ABB7D5",
"I@	c #AEBBD4",
"J@	c #8A9BC0",
"K@	c #A1B0D5",
"L@	c #BBC5E7",
"M@	c #B3BEE2",
"N@	c #E5EAFC",
"O@	c #DBE2F7",
"P@	c #D4DBF4",
"Q@	c #CAD4EE",
"R@	c #E2E8F5",
"S@	c #E4E9EF",
"T@	c #E7EBF4",
"U@	c #DDE3F4",
"V@	c #CCD6F0",
"W@	c #D3DBF3",
"X@	c #A0AFD3",
"Y@	c #98A8CC",
"Z@	c #C9D2ED",
"`@	c #C5CEEC",
" #	c #AAB8DD",
".#	c #E2E8F8",
"+#	c #E6EBFD",
"@#	c #D6DDF1",
"##	c #D5DCF1",
"$#	c #C5D0EC",
"%#	c #DDE3F7",
"&#	c #ACB9DE",
"*#	c #8FA1C7",
"=#	c #CFD7F0",
"-#	c #CDD5EE",
";#	c #F4F7FF",
">#	c #ACB9DF",
",#	c #B0BCE0",
"'#	c #DDE3F8",
")#	c #DEE5F8",
"!#	c #A8B5DB",
"~#	c #B9C5E4",
"{#	c #B4C0E1",
"]#	c #DAE1F6",
"^#	c #D6DDF5",
"/#	c #F6F8FF",
"(#	c #F0F3FF",
"_#	c #E9EEFF",
":#	c #E0E5F9",
"<#	c #7E93C4",
"[#	c #8598C8",
"}#	c #D2DAF2",
"|#	c #E9EEFB",
"1#	c #ACB9DD",
"2#	c #A4B2D7",
"3#	c #4B6599",
"4#	c #D2D9F3",
"5#	c #CED7F0",
"6#	c #F3F6FD",
"7#	c #B9C6E6",
"8#	c #D8E0F5",
"9#	c #D6DDF3",
"0#	c #DBE2F5",
"a#	c #BFCAE8",
"b#	c #B2BEE2",
"c#	c #ABB8DA",
"d#	c #D6DCF5",
"e#	c #A9B6DC",
"f#	c #C2CBEA",
"g#	c #C8D1EE",
"h#	c #A8B6D7",
"i#	c #9CACD0",
"j#	c #F5F8FD",
"k#	c #B7C4E5",
"l#	c #9EADD7",
"m#	c #A0AFD7",
"n#	c #A0AFD8",
"o#	c #A0AED7",
"p#	c #9BABCF",
"q#	c #BDC7E2",
"r#	c #B9C5E5",
"s#	c #A8B6D9",
"t#	c #6B80AB",
"u#	c #E3E8F8",
"v#	c #D4DAF4",
"w#	c #B8C2E4",
"x#	c #5E75A8",
"y#	c #EFF2FF",
"z#	c #E8EDFB",
"A#	c #E0E5F3",
"B#	c #DDE3F6",
"C#	c #B7C2E5",
"D#	c #CED7EE",
"E#	c #4A6598",
"F#	c #6B80AC",
"G#	c #D5DCF0",
"H#	c #F1F4FF",
"I#	c #E6EBFB",
"J#	c #8D9EC4",
"K#	c #A4B2D2",
"L#	c #C0CAE8",
"M#	c #CAD3EF",
"N#	c #9CABCD",
"O#	c #92A4C9",
"P#	c #BAC5E4",
"Q#	c #6E82AC",
"R#	c #E9EDF9",
"S#	c #7F92BC",
"T#	c #697FAC",
"U#	c #C6CEEC",
"V#	c #A0B0D6",
"W#	c #6178A5",
"X#	c #889BC4",
"Y#	c #E4E9F7",
"Z#	c #9AA9D2",
"`#	c #768BBD",
" $	c #B8C2E5",
".$	c #657CB1",
"+$	c #7084B7",
"@$	c #B5C0E3",
"#$	c #B5C1E3",
"$$	c #6077AB",
"%$	c #8093BF",
"&$	c #D6DEF4",
"*$	c #D1D9F1",
"=$	c #D7DEF4",
"-$	c #687FAD",
";$	c #375791",
">$	c #4E6AA5",
",$	c #536EA8",
"'$	c #5A73AD",
")$	c #5F77B1",
"!$	c #5771AB",
"~$	c #516CA6",
"{$	c #36568F",
"                                                                                                ",
"                                        . + @ # $ % & *                                         ",
"                                        = - ; > , ' ) !                                         ",
"                                        ~ { ] ^ / ( ) _                                         ",
"                                        : < [ } | 1 2 3                                         ",
"                    4 5 6         7 8 9 0 a b c d e f g h i j         k l m                     ",
"                  n o p q r     s t u v w x y c z A B C D E F G     H I D J                     ",
"                K o L M N O P Q O p R S T x y c U A B V V W 2 X Y Z g D `  ...+.                ",
"              @.#.$.M %.M &.*.=.%.%.-.;.>.a b c ,.e B V '.2 W ` ).) D ` W C !.~.{.              ",
"              ].^.%.N %.%.N %.N M /.M (._.:.< <.> [.B }.V ` D |.2 2 |.D W V 1.2.3.              ",
"              4.5.6.7.%.%.%.%.%.M %.8.9.0.a.b.c.d.e.f.g.h.).'.2 D D 2 W C 2.i.j.k.              ",
"                l.m.M %.%.%.%.M &.n.o.p.q.&.r.s.t.u.v.w.x.y.z.A.'.V '.V 2.1.B.C.                ",
"                  D.%.%.%.%.M %.E.F.G.H.0.;.x I.' 2.J.W K.L.M.).A.A.A.N.B A.O.                  ",
"                P.Q.M %.%.M R.S.T.U.m.;.-.V.W.X.Y.).W D ` D Z.`. +.+B B ++1 /                   ",
"                @+&.M %.M ^.#+$+%+T &+;.-.m.*+=+-+) W 2 D W ` ) ;+1 1 >+U ,+d '+                ",
"                &.M %.%.%.)+!+~+{+]+&+S N ^+:./+A 1.'.W 2 W W 1.(+_+:+/ <+} [+}+                ",
"              |+N M M -.1+2+3+4+:.:.5+m.6+N < 7+8+!.W 2.'.}.2.f | 9+:.0+I.a+{ b+c+              ",
"              d+-.n.n.n.e+f+>.g+>.W.h+i+j+k+        l+).f f ++| > m+*.< < a n+>.o+              ",
"      p+q+r+s+t+n.-.-.-.2+e+&+u+u+j+v+w+x+            y+z+A+c B+< h+C+D+E+F+Q.S G+H+I+J+K+      ",
"      L+M+M+N+-.n.-.n.%.O+P+m.Q+i+i+R+S+                O T+] U+5.^.V+^.W+O.^.-.X+f.Y+Z+`+      ",
"       @-.p n.n.-.-.n.^..@^.^.+@;.@@#@                  $@W.Q.O.M N %@&@7.*@n.-.&.=@P+i+-@      ",
"      ;@M -.-.-.-.-.n.^+>@6.8.,@,@1+`+                    '@)@!@~@H.X+{@]@N &.^.P+;.^@/@(@      ",
"      ;@M *@-.-.-.-.n.^+_@R.S :@<@n.%.                    (.p [@%.}@M |@1@&.2@;.^@m.}@b.3@      ",
"      ;@6.n.n.*@*@*@n.'@4@W.5@6@7@8@P+                  9@Q.0@a@b@7@c@d@%././.H.W+&+Q.e@#+      ",
"      f@Q+g@$.*@p *@*@h@i@5@j@[+k@m+l@m@                n@j+b.o@p@r.q@r@%.%.%.M P+s@t@u@;@      ",
"      v@w@x@y@N p p p *@z@M.A@| B@j@{ F+C@            D@E@6@b+U+G+m+F@1+M %.%.M ;.G@H@I@J@      ",
"              K@8.L@/.*@M@e+e B N@| O@P@Q@R@S@    T@U@V@x < W@P@a+E@9.M N %.%.&.X@              ",
"              Y@7@Z@F+`@;. #.#C N.+#| j@m+O.@@@###&+$#W.E@[ j@s.%#w &#%.%.%.M M *#              ",
"                =#{ P@x 6@^+-#;#C 1.N@c u@5+0.>#,#W+q.>.:.< '#d )#!#'@N %.%.M ~#                ",
"                {#| '#]#^#x w /#(#_#B :#y W.~@<#[#b.u+Q@:.}#a+|#1#/.%.M %.M 8.2#                ",
"                3#:+>+A@c [+4#5#6#).1.[.I.r.^.-.7#V.u+Q@5@W@8#f+1+M %.%.%.M M.                  ",
"                  5@A.e >+/ [+U+]+9#0#N@B+l@^.M H.m.q.4+t@a#)+r@%.%.%.%.%.%.b#                  ",
"                c#) A.N.B U c d#4+O.M@e#H.F+H.P+f#R+m.2+{@p M %.M %.%.%.%.M g#h#                ",
"              i#j#` ` V N.e A@j@x 8@k#h@~@<@l#m#n#o#{@R =.M %.%.%.%.%.%.%.%.n.q p#              ",
"              q#(#` D ` A.1.( '#P@b.r#p *@h@%.&.1@%.M -.-.%.%.%.%.M %.%.%.%.N ^+s#              ",
"              t#u#).` D A.1.>+'#v#F+L@p *@n.w#n.n.n.n.n.M %.%.M -.%.M %.%.M /.g.                ",
"                x#u#y#|.V z#A#B#[ >.]@p 0.C#-.-.-.-.-.n.-.M $.(.o@D#Q.%.M ^.g.E#                ",
"                  F#G#H#I#J#    K#L#s@;.p *@-.-.-.-.-.n.&+M#Y.N#    O#5.m.P#                    ",
"                    Q#R#S#          T#y+@@p -.-.-.-.n.U#V#W#          X#Y#                      ",
"                                        1#-.n.-.-.n.M Z#                                        ",
"                                        `#^+n.-. $n.H..$                                        ",
"                                        +$=.@$#$#$@$^.$$                                        ",
"                                        %$&$}#}#}#*$=$-$                                        ",
"                                        ;$>$,$'$)$!$~${$                                        ",
"                                              m.8@;.p                                           ",
"                                                                                                ",
"                                                                                                ",
"                                                                                                "};
